<mxfile host="app.diagrams.net" modified="2024-04-09T22:18:58.386Z" agent="Mozilla/5.0 (Windows NT 10.0; Win64; x64) AppleWebKit/537.36 (KHTML, like Gecko) Chrome/123.0.0.0 Safari/537.36" etag="xjW3xC4jgE1jtAn1a_Z1" version="24.2.3" type="github">
  <diagram name="Page-1" id="2YBvvXClWsGukQMizWep">
    <mxGraphModel dx="1434" dy="738" grid="1" gridSize="10" guides="1" tooltips="1" connect="1" arrows="1" fold="1" page="1" pageScale="1" pageWidth="850" pageHeight="1100" math="0" shadow="0">
      <root>
        <mxCell id="0" />
        <mxCell id="1" parent="0" />
        <mxCell id="muWC5Gvqwgzd6AypiFNx-1" value=":Usuario" style="shape=umlLifeline;perimeter=lifelinePerimeter;whiteSpace=wrap;html=1;container=0;dropTarget=0;collapsible=0;recursiveResize=0;outlineConnect=0;portConstraint=eastwest;newEdgeStyle={&quot;edgeStyle&quot;:&quot;elbowEdgeStyle&quot;,&quot;elbow&quot;:&quot;vertical&quot;,&quot;curved&quot;:0,&quot;rounded&quot;:0};" vertex="1" parent="1">
          <mxGeometry x="40" y="50" width="100" height="390" as="geometry" />
        </mxCell>
        <mxCell id="muWC5Gvqwgzd6AypiFNx-2" value="" style="html=1;points=[];perimeter=orthogonalPerimeter;outlineConnect=0;targetShapes=umlLifeline;portConstraint=eastwest;newEdgeStyle={&quot;edgeStyle&quot;:&quot;elbowEdgeStyle&quot;,&quot;elbow&quot;:&quot;vertical&quot;,&quot;curved&quot;:0,&quot;rounded&quot;:0};" vertex="1" parent="muWC5Gvqwgzd6AypiFNx-1">
          <mxGeometry x="45" y="70" width="10" height="280" as="geometry" />
        </mxCell>
        <mxCell id="muWC5Gvqwgzd6AypiFNx-3" value="" style="html=1;verticalAlign=bottom;startArrow=oval;endArrow=block;startSize=8;edgeStyle=elbowEdgeStyle;elbow=vertical;curved=0;rounded=0;" edge="1" parent="muWC5Gvqwgzd6AypiFNx-1" target="muWC5Gvqwgzd6AypiFNx-2">
          <mxGeometry relative="1" as="geometry">
            <mxPoint x="-15" y="70" as="sourcePoint" />
          </mxGeometry>
        </mxCell>
        <mxCell id="muWC5Gvqwgzd6AypiFNx-4" value="" style="html=1;points=[];perimeter=orthogonalPerimeter;outlineConnect=0;targetShapes=umlLifeline;portConstraint=eastwest;newEdgeStyle={&quot;edgeStyle&quot;:&quot;elbowEdgeStyle&quot;,&quot;elbow&quot;:&quot;vertical&quot;,&quot;curved&quot;:0,&quot;rounded&quot;:0};" vertex="1" parent="muWC5Gvqwgzd6AypiFNx-1">
          <mxGeometry x="55" y="120" width="10" height="80" as="geometry" />
        </mxCell>
        <mxCell id="muWC5Gvqwgzd6AypiFNx-6" value=":Aplicación" style="shape=umlLifeline;perimeter=lifelinePerimeter;whiteSpace=wrap;html=1;container=0;dropTarget=0;collapsible=0;recursiveResize=0;outlineConnect=0;portConstraint=eastwest;newEdgeStyle={&quot;edgeStyle&quot;:&quot;elbowEdgeStyle&quot;,&quot;elbow&quot;:&quot;vertical&quot;,&quot;curved&quot;:0,&quot;rounded&quot;:0};" vertex="1" parent="1">
          <mxGeometry x="410" y="50" width="100" height="390" as="geometry" />
        </mxCell>
        <mxCell id="muWC5Gvqwgzd6AypiFNx-7" value="" style="html=1;points=[];perimeter=orthogonalPerimeter;outlineConnect=0;targetShapes=umlLifeline;portConstraint=eastwest;newEdgeStyle={&quot;edgeStyle&quot;:&quot;elbowEdgeStyle&quot;,&quot;elbow&quot;:&quot;vertical&quot;,&quot;curved&quot;:0,&quot;rounded&quot;:0};" vertex="1" parent="muWC5Gvqwgzd6AypiFNx-6">
          <mxGeometry x="45" y="80" width="10" height="270" as="geometry" />
        </mxCell>
        <mxCell id="muWC5Gvqwgzd6AypiFNx-8" value="solicitar_nueva_conversación ()" style="html=1;verticalAlign=bottom;endArrow=block;edgeStyle=elbowEdgeStyle;elbow=vertical;curved=0;rounded=0;" edge="1" parent="1" source="muWC5Gvqwgzd6AypiFNx-2" target="muWC5Gvqwgzd6AypiFNx-7">
          <mxGeometry relative="1" as="geometry">
            <mxPoint x="205" y="140" as="sourcePoint" />
            <Array as="points">
              <mxPoint x="190" y="130" />
            </Array>
          </mxGeometry>
        </mxCell>
        <mxCell id="muWC5Gvqwgzd6AypiFNx-9" value="mostrar_conversación ()" style="html=1;verticalAlign=bottom;endArrow=open;dashed=1;endSize=8;edgeStyle=elbowEdgeStyle;elbow=vertical;curved=0;rounded=0;" edge="1" parent="1" source="muWC5Gvqwgzd6AypiFNx-7" target="muWC5Gvqwgzd6AypiFNx-2">
          <mxGeometry relative="1" as="geometry">
            <mxPoint x="205" y="215" as="targetPoint" />
            <Array as="points">
              <mxPoint x="220" y="330" />
              <mxPoint x="200" y="290" />
            </Array>
          </mxGeometry>
        </mxCell>
        <mxCell id="muWC5Gvqwgzd6AypiFNx-10" value="mostrar_lista_contactos ()" style="html=1;verticalAlign=bottom;endArrow=block;edgeStyle=elbowEdgeStyle;elbow=vertical;curved=0;rounded=0;dashed=1;" edge="1" parent="1" source="muWC5Gvqwgzd6AypiFNx-7" target="muWC5Gvqwgzd6AypiFNx-4">
          <mxGeometry relative="1" as="geometry">
            <mxPoint x="185" y="170" as="sourcePoint" />
            <Array as="points">
              <mxPoint x="200" y="170" />
            </Array>
          </mxGeometry>
        </mxCell>
        <mxCell id="muWC5Gvqwgzd6AypiFNx-11" value="seleccionar_contacto (nombre_contacto)" style="html=1;verticalAlign=bottom;endArrow=open;endSize=8;edgeStyle=elbowEdgeStyle;elbow=vertical;curved=0;rounded=0;" edge="1" parent="1" source="muWC5Gvqwgzd6AypiFNx-4" target="muWC5Gvqwgzd6AypiFNx-7">
          <mxGeometry x="0.0015" relative="1" as="geometry">
            <mxPoint x="185" y="245" as="targetPoint" />
            <Array as="points">
              <mxPoint x="190" y="240" />
            </Array>
            <mxPoint as="offset" />
          </mxGeometry>
        </mxCell>
        <mxCell id="muWC5Gvqwgzd6AypiFNx-12" value=":Base_de_datos" style="shape=umlLifeline;perimeter=lifelinePerimeter;whiteSpace=wrap;html=1;container=0;dropTarget=0;collapsible=0;recursiveResize=0;outlineConnect=0;portConstraint=eastwest;newEdgeStyle={&quot;edgeStyle&quot;:&quot;elbowEdgeStyle&quot;,&quot;elbow&quot;:&quot;vertical&quot;,&quot;curved&quot;:0,&quot;rounded&quot;:0};" vertex="1" parent="1">
          <mxGeometry x="790" y="50" width="100" height="390" as="geometry" />
        </mxCell>
        <mxCell id="muWC5Gvqwgzd6AypiFNx-13" value="" style="html=1;points=[];perimeter=orthogonalPerimeter;outlineConnect=0;targetShapes=umlLifeline;portConstraint=eastwest;newEdgeStyle={&quot;edgeStyle&quot;:&quot;elbowEdgeStyle&quot;,&quot;elbow&quot;:&quot;vertical&quot;,&quot;curved&quot;:0,&quot;rounded&quot;:0};" vertex="1" parent="muWC5Gvqwgzd6AypiFNx-12">
          <mxGeometry x="45" y="80" width="10" height="270" as="geometry" />
        </mxCell>
        <mxCell id="muWC5Gvqwgzd6AypiFNx-14" value="crear_nueva_conversación (nombre_usuario, nombre_contacto)" style="html=1;verticalAlign=bottom;endArrow=block;edgeStyle=elbowEdgeStyle;elbow=vertical;curved=0;rounded=0;" edge="1" parent="1" source="muWC5Gvqwgzd6AypiFNx-7" target="muWC5Gvqwgzd6AypiFNx-13">
          <mxGeometry relative="1" as="geometry">
            <mxPoint x="500" y="195" as="sourcePoint" />
            <Array as="points">
              <mxPoint x="550" y="270" />
              <mxPoint x="615" y="195" />
              <mxPoint x="550" y="205" />
            </Array>
            <mxPoint x="720" y="195" as="targetPoint" />
          </mxGeometry>
        </mxCell>
        <mxCell id="muWC5Gvqwgzd6AypiFNx-15" value="confirmar_creación_conversación ()" style="html=1;verticalAlign=bottom;endArrow=open;dashed=1;endSize=8;edgeStyle=elbowEdgeStyle;elbow=vertical;curved=0;rounded=0;" edge="1" parent="1" source="muWC5Gvqwgzd6AypiFNx-13" target="muWC5Gvqwgzd6AypiFNx-7">
          <mxGeometry relative="1" as="geometry">
            <mxPoint x="470" y="330" as="targetPoint" />
            <Array as="points">
              <mxPoint x="575" y="330" />
            </Array>
            <mxPoint x="830" y="330" as="sourcePoint" />
          </mxGeometry>
        </mxCell>
      </root>
    </mxGraphModel>
  </diagram>
</mxfile>
